<svg xmlns="http://www.w3.org/2000/svg" xmlns:xlink="http://www.w3.org/1999/xlink" width="318.075" height="216.184" viewBox="0 0 238.556 162.138"><defs><clipPath id="c"><path d="M.113.336h234.516v141.516H.113Zm0 0"/></clipPath><clipPath id="b"><path d="M0 0h235v142H0z"/></clipPath><clipPath id="J"><path d="M1 1.129h236.113v143.719H1Zm0 0"/></clipPath><clipPath id="e"><path d="M.188.566h197.167V4.43H.188Zm0 0"/></clipPath><clipPath id="d"><path d="M0 0h198v5H0z"/></clipPath><clipPath id="g"><path d="M.188.289h197.167v3.863H.188Zm0 0"/></clipPath><clipPath id="f"><path d="M0 0h198v5H0z"/></clipPath><clipPath id="i"><path d="M.188.012h197.167v3.863H.188Zm0 0"/></clipPath><clipPath id="h"><path d="M0 0h198v4H0z"/></clipPath><clipPath id="k"><path d="M.188.73h197.167v3.864H.188Zm0 0"/></clipPath><clipPath id="j"><path d="M0 0h198v5H0z"/></clipPath><clipPath id="m"><path d="M.188.453h197.167v3.863H.188Zm0 0"/></clipPath><clipPath id="l"><path d="M0 0h198v5H0z"/></clipPath><clipPath id="o"><path d="M.188.176h197.167v3.863H.188Zm0 0"/></clipPath><clipPath id="n"><path d="M0 0h198v5H0z"/></clipPath><clipPath id="q"><path d="M.188.898h197.167v3.86H.188Zm0 0"/></clipPath><clipPath id="p"><path d="M0 0h198v5H0z"/></clipPath><clipPath id="s"><path d="M.188.617h197.167V4.48H.188Zm0 0"/></clipPath><clipPath id="r"><path d="M0 0h198v5H0z"/></clipPath><clipPath id="u"><path d="M.188.336h197.167v3.867H.188Zm0 0"/></clipPath><clipPath id="t"><path d="M0 0h198v5H0z"/></clipPath><clipPath id="w"><path d="M.188.059h197.167v3.863H.188Zm0 0"/></clipPath><clipPath id="v"><path d="M0 0h198v4H0z"/></clipPath><clipPath id="y"><path d="M.652.246H197.82v3.246H.652Zm0 0"/></clipPath><clipPath id="x"><path d="M0 0h198v4H0z"/></clipPath><clipPath id="A"><path d="M.188.293h197.167v3.863H.188Zm0 0"/></clipPath><clipPath id="z"><path d="M0 0h198v5H0z"/></clipPath><clipPath id="C"><path d="M.188.016h197.167v3.863H.188Zm0 0"/></clipPath><clipPath id="B"><path d="M0 0h198v4H0z"/></clipPath><clipPath id="E"><path d="M.188.125h197.167v3.863H.188Zm0 0"/></clipPath><clipPath id="D"><path d="M0 0h198v4H0z"/></clipPath><clipPath id="G"><path d="M.188.844h197.167V4.09H.188Zm0 0"/></clipPath><clipPath id="F"><path d="M0 0h198v5H0z"/></clipPath><clipPath id="aw"><path d="M114 76h7v6h-7Zm0 0"/></clipPath><clipPath id="ax"><path d="M114.93 78.719a2.721 2.721 0 1 0 5.441 0c0-1.5-1.219-2.715-2.719-2.715a2.72 2.72 0 0 0-2.722 2.715"/></clipPath><path id="ao" d="M-.656-2.812q0-.388-.094-.641a1.33 1.33 0 0 0-.578-.735q-.34-.233-.891-.343a4 4 0 0 0-.593-.047q-1.078 0-1.657.422-.592.422-.593 1.359v1.375h4.406ZM-5.734-.641v-2.328q0-1.171.843-1.828.767-.576 1.938-.578a3.9 3.9 0 0 1 1.656.344Q.002-4.421 0-2.953v2.312Zm0 0"/><path id="ap" d="M-4.172-.531v-.672h.719q-.218-.075-.516-.391a1.1 1.1 0 0 1-.297-.75v-.062q.002-.046.016-.156h.734v.124a.5.5 0 0 0-.015.11q.002.518.343.812.348.282.782.282H0v.703Zm0 0"/><path id="aq" d="M-1.109-1.047c.199 0 .359-.07.484-.219a.86.86 0 0 0 .172-.531q.002-.374-.172-.719-.281-.592-.937-.593h-.563c.055.093.102.211.141.343q.047.204.078.391l.047.422c.031.262.086.453.156.578q.188.328.594.328M-2.531-2.75q-.029-.246-.203-.328A.6.6 0 0 0-3-3.125q-.357.001-.516.266-.17.251-.172.718c0 .368.102.625.297.782.118.086.278.14.485.171v.657q-.763-.013-1.063-.5a2.03 2.03 0 0 1-.312-1.125q0-.732.281-1.188.282-.468.875-.468h2.406a.44.44 0 0 0 .188-.032q.063-.047.062-.187v-.11A2 2 0 0 0-.5-4.266h.516q.045.158.062.25.014.082.016.235-.001.363-.266.515a.76.76 0 0 1-.375.125q.284.223.485.625c.132.262.203.555.203.875 0 .387-.118.703-.344.953a1.18 1.18 0 0 1-.891.376q-.574.002-.89-.36c-.219-.25-.352-.57-.407-.969Zm-1.75.578"/><path id="ar" d="M-4.25-1.984c0-.332.086-.618.25-.86q.128-.2.391-.406h-.532v-.656h3.797c.528 0 .953.078 1.266.234q.844.439.844 1.656-.001.673-.313 1.141-.299.457-.937.516v-.719a.78.78 0 0 0 .437-.203q.235-.236.235-.75c0-.539-.196-.895-.579-1.063-.218-.094-.613-.133-1.187-.125q.316.207.469.5.157.3.156.781 0 .69-.469 1.204c-.32.336-.851.5-1.594.5q-1.06 0-1.64-.516-.593-.515-.594-1.234m2.141-1.266c-.508 0-.891.109-1.141.328q-.375.316-.375.813 0 .737.687 1 .377.157.969.156.703 0 1.078-.281a.94.94 0 0 0 .375-.782c0-.5-.226-.851-.687-1.062a2.25 2.25 0 0 0-.906-.172m-2.172 1.188"/><path id="as" d="M1.109-1.844q.03.487.235.782.387.579 1.359.578c.289 0 .555-.039.797-.125q.687-.247.688-.875 0-.47-.282-.657c-.199-.132-.511-.25-.937-.343l-.766-.172q-.768-.171-1.078-.375-.549-.358-.547-1.078 0-.762.531-1.266c.352-.332.86-.5 1.516-.5q.904.002 1.531.437c.414.293.625.758.625 1.391h-.734q-.046-.451-.235-.703-.363-.452-1.218-.453-.674.001-.985.297a.9.9 0 0 0-.297.672.65.65 0 0 0 .36.609c.144.086.488.187 1.031.313l.813.187q.573.127.89.359c.364.274.547.657.547 1.157q0 .953-.703 1.375-.691.405-1.594.406Q1.578.174.984-.375.374-.919.391-1.844Zm1.579-4.047"/><path id="at" d="M2.281-.469q.483.002.813-.406.328-.42.328-1.234a2.4 2.4 0 0 0-.141-.86q-.283-.686-1-.687-.737.002-1 .718-.14.392-.14 1 0 .486.14.813.263.656 1 .656M.453-4.156h.688v.547q.216-.28.468-.438.341-.234.829-.234.7 0 1.203.547.499.55.5 1.562c0 .906-.243 1.555-.719 1.938a1.62 1.62 0 0 1-1.047.375c-.313 0-.578-.071-.797-.203a2.1 2.1 0 0 1-.422-.407v2.141H.453Zm0 0"/><path id="au" d="M2.25-4.266c.301 0 .586.071.859.204.282.136.493.32.641.546q.217.315.281.735c.039.187.063.496.063.922H1.031c.008.418.11.757.297 1.015q.28.392.875.391.546 0 .875-.375a1.2 1.2 0 0 0 .266-.484h.687a1.6 1.6 0 0 1-.187.515 1.8 1.8 0 0 1-.328.469 1.56 1.56 0 0 1-.797.406 2.6 2.6 0 0 1-.578.063A1.78 1.78 0 0 1 .812-.422C.457-.797.281-1.32.281-2Q.279-3.014.828-3.641c.363-.414.836-.625 1.422-.625m1.125 1.844a2 2 0 0 0-.203-.734q-.283-.499-.969-.5-.468.001-.797.359a1.34 1.34 0 0 0-.359.875ZM2.188-4.281"/><path id="av" d="M.953-2.031q0 .657.281 1.109c.196.305.504.453.922.453q.481.002.797-.406.312-.42.313-1.203 0-.797-.328-1.172a1 1 0 0 0-.797-.391q-.518.001-.86.407-.328.408-.328 1.203M2.016-4.25q.48.002.796.203.188.112.438.406V-5.75h.672V0h-.641v-.578a1.4 1.4 0 0 1-.578.562 1.8 1.8 0 0 1-.765.157q-.704 0-1.219-.579C.383-.832.219-1.352.219-2q0-.904.469-1.578c.312-.445.753-.672 1.328-.672m0 0"/><path id="az" d="M4.781-5.734v.687H2.844V0h-.782v-5.047H.125v-.687Zm0 0"/><path id="aA" d="M2.172-.453q.702 0 .953-.531.265-.528.266-1.172 0-.576-.188-.953c-.199-.383-.543-.579-1.031-.579q-.644.001-.938.5Q.954-2.702.953-2q0 .658.281 1.109.294.439.938.438m.031-3.844q.797.001 1.359.547.564.534.563 1.578-.001 1.003-.5 1.672-.485.657-1.516.656-.86.001-1.375-.578C.398-.816.234-1.344.234-2Q.233-3.044.766-3.672c.351-.414.832-.625 1.437-.625m-.031.016"/><path id="aB" d="M.656-5.344h.703v1.172h.672v.563h-.672v2.734q-.001.221.157.297.076.033.265.031h.25V0q-.128.03-.25.047A3 3 0 0 1 1.5.062Q.997.063.828-.188.654-.434.656-.844v-2.765H.094v-.563h.562Zm0 0"/><path id="aC" d="M1.047-1.109c0 .199.07.359.219.484a.86.86 0 0 0 .531.172q.374.002.719-.172.592-.281.593-.937v-.563a1.6 1.6 0 0 1-.343.141 6 6 0 0 1-.391.078l-.422.047c-.262.031-.453.086-.578.156q-.328.188-.328.594M2.75-2.531q.246-.029.328-.203A.6.6 0 0 0 3.125-3q-.001-.357-.266-.516-.251-.17-.718-.172c-.368 0-.625.102-.782.297-.086.118-.14.278-.171.485H.531q.013-.763.5-1.063a2.03 2.03 0 0 1 1.125-.312q.732 0 1.188.281.468.282.468.875v2.406q-.002.111.032.188.047.063.187.062h.11q.06-.013.125-.031v.516q-.158.045-.25.062a2 2 0 0 1-.235.016q-.363-.001-.515-.266a.76.76 0 0 1-.125-.375 1.8 1.8 0 0 1-.625.485 1.9 1.9 0 0 1-.875.203C1.254.141.938.023.688-.203a1.18 1.18 0 0 1-.376-.891q-.002-.574.36-.89c.25-.219.57-.352.969-.407Zm-.578-1.75"/><path id="aD" d="M.531-5.734h.703V0H.531Zm0 0"/><path id="aE" d="M.531-4.172h.672v.719q.075-.218.391-.516c.218-.195.468-.297.75-.297h.062q.046.002.156.016v.734h-.124a.5.5 0 0 0-.11-.015q-.518.002-.812.343a1.2 1.2 0 0 0-.282.782V0H.531Zm0 0"/><path id="aF" d="M1.984-4.25c.332 0 .618.086.86.25q.2.128.406.391v-.532h.656v3.797c0 .528-.078.953-.234 1.266q-.439.844-1.656.844-.673-.001-1.141-.313Q.418 1.154.359.516h.719a.78.78 0 0 0 .203.437q.236.235.75.235c.539 0 .895-.196 1.063-.579.094-.218.133-.613.125-1.187a1.34 1.34 0 0 1-.5.469q-.3.157-.781.156-.69 0-1.204-.469c-.336-.32-.5-.851-.5-1.594q0-1.06.516-1.64.515-.593 1.234-.594M3.25-2.109c0-.508-.109-.891-.328-1.141a1.01 1.01 0 0 0-.813-.375q-.737 0-1 .687-.157.377-.156.969 0 .703.281 1.078.294.375.782.375c.5 0 .851-.226 1.062-.687.113-.258.172-.563.172-.906M2.062-4.281"/><path id="aH" d="M.688-5.734h2.578q.75.002 1.218.437.47.44.469 1.219 0 .657-.422 1.156-.41.502-1.265.5H1.453V0H.688Zm3.484 1.656q0-.638-.469-.86-.252-.123-.703-.124H1.453v1.984H3c.352 0 .633-.07.844-.219q.328-.217.328-.781m0 0"/><path id="aI" d="M.938-1.312c.019.242.078.421.171.546q.265.328.922.328.388.002.688-.156a.57.57 0 0 0 .297-.531.45.45 0 0 0-.25-.406q-.142-.093-.594-.203l-.563-.141q-.534-.122-.781-.297c-.305-.187-.453-.445-.453-.781q0-.591.422-.953.435-.375 1.156-.375.938 0 1.359.547.263.362.25.765h-.656a.93.93 0 0 0-.172-.437q-.252-.282-.843-.282-.394.002-.594.157a.49.49 0 0 0-.203.406q-.002.269.265.437.154.096.453.172l.469.11c.5.125.836.246 1.016.359q.405.27.406.844 0 .55-.422.953C3 .02 2.57.156 2 .156 1.375.156.93.012.672-.266A1.6 1.6 0 0 1 .25-1.312Zm1.031-2.969"/><path id="aJ" d="M.516-4.156h.718V0H.516Zm0-1.578h.718v.796H.516Zm0 0"/><path id="aK" d="M.781-5.734h.781V0H.781Zm0 0"/><path id="aL" d="M.516-4.172h.672v.594a1.8 1.8 0 0 1 .624-.531c.219-.102.461-.157.735-.157.594 0 .992.204 1.203.61q.17.345.172.984V0h-.719v-2.625c0-.258-.039-.469-.109-.625q-.189-.389-.688-.391A1.4 1.4 0 0 0 2-3.594a1.16 1.16 0 0 0-.734.782 3 3 0 0 0-.047.624V0H.516Zm1.64-.109"/><path id="aM" d="M1.219-4.172v2.766c0 .218.031.398.093.531Q1.5-.5 2.016-.5q.731 0 1-.656.14-.36.14-.969v-2.047h.703V0h-.656v-.609a1.4 1.4 0 0 1-.344.39q-.393.328-.968.328-.89.002-1.219-.593-.174-.31-.172-.86v-2.828Zm.953-.109"/><path id="aN" d="M2.125-4.297q.703.002 1.141.344.452.344.546 1.187h-.687a1.2 1.2 0 0 0-.297-.64q-.223-.265-.703-.266-.673 0-.953.656-.188.425-.188 1.047c0 .418.086.774.266 1.063q.265.422.828.422c.289 0 .52-.086.688-.266q.264-.265.359-.734h.687q-.126.845-.593 1.234-.47.375-1.203.375c-.543 0-.977-.195-1.297-.594q-.485-.609-.485-1.5-.001-1.108.532-1.719.527-.609 1.359-.609m-.109.016"/><path id="aO" d="M.609-5.734h.782v5.046h2.89V0H.609Zm0 0"/><path id="aP" d="M1.812-5.734h.594L.594 0H0Zm0 0"/><path id="aQ" d="M2.812-.656q.388 0 .641-.094a1.33 1.33 0 0 0 .735-.578q.233-.34.343-.891.047-.326.047-.593 0-1.078-.422-1.657-.422-.592-1.359-.593H1.422v4.406ZM.641-5.734h2.328q1.171 0 1.828.843.576.767.578 1.938a3.9 3.9 0 0 1-.344 1.656Q4.421.002 2.953 0H.641Zm0 0"/><path id="aR" d="M.438-4.297h.843L2.5-.656l1.234-3.641h.828V0H4v-2.969q.014-.293.016-.656L2.797 0h-.578L.984-3.625V-3c.008.211.016.367.016.469V0H.438Zm0 0"/><path id="aS" d="M2.656-1.766 2-3.656l-.688 1.89Zm-.953-2.531h.656L3.922 0h-.641l-.437-1.281H1.141L.688 0H.094Zm0 0"/><path id="aT" d="M.828 0H.125l1.531-2.203L.219-4.297h.734l1.094 1.641 1.078-1.641h.703L2.375-2.203 3.891 0h-.719L2.016-1.766Zm0 0"/><mask id="H"><g filter="url(#a)"><path fill-opacity=".1" d="M-23.856-14.599h286.267v175.186H-23.856z"/></g></mask><mask id="K"><g filter="url(#a)"><path fill-opacity=".3" d="M-23.856-14.599h286.267v175.186H-23.856z"/></g></mask><mask id="M"><g filter="url(#a)"><path fill-opacity=".3" d="M-23.856-14.599h286.267v175.186H-23.856z"/></g></mask><mask id="O"><g filter="url(#a)"><path fill-opacity=".3" d="M-23.856-14.599h286.267v175.186H-23.856z"/></g></mask><mask id="Q"><g filter="url(#a)"><path fill-opacity=".3" d="M-23.856-14.599h286.267v175.186H-23.856z"/></g></mask><mask id="S"><g filter="url(#a)"><path fill-opacity=".3" d="M-23.856-14.599h286.267v175.186H-23.856z"/></g></mask><mask id="U"><g filter="url(#a)"><path fill-opacity=".3" d="M-23.856-14.599h286.267v175.186H-23.856z"/></g></mask><mask id="W"><g filter="url(#a)"><path fill-opacity=".3" d="M-23.856-14.599h286.267v175.186H-23.856z"/></g></mask><mask id="Y"><g filter="url(#a)"><path fill-opacity=".3" d="M-23.856-14.599h286.267v175.186H-23.856z"/></g></mask><mask id="aa"><g filter="url(#a)"><path fill-opacity=".3" d="M-23.856-14.599h286.267v175.186H-23.856z"/></g></mask><mask id="ac"><g filter="url(#a)"><path fill-opacity=".3" d="M-23.856-14.599h286.267v175.186H-23.856z"/></g></mask><mask id="ae"><g filter="url(#a)"><path fill-opacity=".3" d="M-23.856-14.599h286.267v175.186H-23.856z"/></g></mask><mask id="ag"><g filter="url(#a)"><path fill-opacity=".3" d="M-23.856-14.599h286.267v175.186H-23.856z"/></g></mask><mask id="ai"><g filter="url(#a)"><path fill-opacity=".3" d="M-23.856-14.599h286.267v175.186H-23.856z"/></g></mask><mask id="ak"><g filter="url(#a)"><path fill-opacity=".3" d="M-23.856-14.599h286.267v175.186H-23.856z"/></g></mask><mask id="am"><g filter="url(#a)"><path fill-opacity=".3" d="M-23.856-14.599h286.267v175.186H-23.856z"/></g></mask><g id="I" clip-path="url(#b)"><g clip-path="url(#c)"><path fill="#abd2e5" d="M234.629 139.008c0 1.57-1.27 2.844-2.84 2.844H2.957a2.845 2.845 0 0 1-2.844-2.844V3.18A2.84 2.84 0 0 1 2.957.336h228.832c1.57 0 2.84 1.269 2.84 2.844Zm0 0"/></g></g><g id="L" clip-path="url(#d)"><g clip-path="url(#e)"><path fill="#7ed3f7" d="M.188 4.43h197.167V.566H.188Zm0 0"/></g></g><g id="N" clip-path="url(#f)"><g clip-path="url(#g)"><path fill="#7ed3f7" d="M.188 4.152h197.167V.289H.188Zm0 0"/></g></g><g id="P" clip-path="url(#h)"><g clip-path="url(#i)"><path fill="#7ed3f7" d="M.188 3.875h197.167V.012H.188Zm0 0"/></g></g><g id="R" clip-path="url(#j)"><g clip-path="url(#k)"><path fill="#7ed3f7" d="M.188 4.594h197.167V.73H.188Zm0 0"/></g></g><g id="T" clip-path="url(#l)"><g clip-path="url(#m)"><path fill="#7ed3f7" d="M.188 4.316h197.167V.453H.188Zm0 0"/></g></g><g id="V" clip-path="url(#n)"><g clip-path="url(#o)"><path fill="#7ed3f7" d="M.188 4.039h197.167V.176H.188Zm0 0"/></g></g><g id="X" clip-path="url(#p)"><g clip-path="url(#q)"><path fill="#7ed3f7" d="M.188 4.758h197.167V.898H.188Zm0 0"/></g></g><g id="Z" clip-path="url(#r)"><g clip-path="url(#s)"><path fill="#7ed3f7" d="M.188 4.48h197.167V.617H.188Zm0 0"/></g></g><g id="ab" clip-path="url(#t)"><g clip-path="url(#u)"><path fill="#7ed3f7" d="M.188 4.203h197.167V.336H.188Zm0 0"/></g></g><g id="ad" clip-path="url(#v)"><g clip-path="url(#w)"><path fill="#7ed3f7" d="M.188 3.922h197.167V.059H.188Zm0 0"/></g></g><g id="af" clip-path="url(#x)"><g clip-path="url(#y)"><path fill="#7ed3f7" d="M.652.246v3.246l197.168-.125V.246Zm0 0"/></g></g><g id="ah" clip-path="url(#z)"><g clip-path="url(#A)"><path fill="#7ed3f7" d="M.188 4.156h197.167V.293H.188Zm0 0"/></g></g><g id="aj" clip-path="url(#B)"><g clip-path="url(#C)"><path fill="#7ed3f7" d="M.188 3.879h197.167V.016H.188Zm0 0"/></g></g><g id="al" clip-path="url(#D)"><g clip-path="url(#E)"><path fill="#7ed3f7" d="M.188 3.988h197.167V.125H.188Zm0 0"/></g></g><g id="an" clip-path="url(#F)"><g clip-path="url(#G)"><path fill="#7ed3f7" d="M.188.844V4.09l197.167-.125V.844Zm0 0"/></g></g><radialGradient id="ay" cx="0" cy="0" r="2.713" fx="0" fy="0" gradientTransform="translate(117.169 77.76)" gradientUnits="userSpaceOnUse"><stop offset="0" stop-color="#fffefe"/><stop offset=".004" stop-color="#fefdfc"/><stop offset=".008" stop-color="#fefcf9"/><stop offset=".012" stop-color="#fdfbf7"/><stop offset=".016" stop-color="#fdfaf5"/><stop offset=".02" stop-color="#fcf9f4"/><stop offset=".023" stop-color="#fcf8f2"/><stop offset=".027" stop-color="#fbf7f1"/><stop offset=".031" stop-color="#fbf6ef"/><stop offset=".035" stop-color="#fbf5ee"/><stop offset=".039" stop-color="#faf4ec"/><stop offset=".043" stop-color="#faf3eb"/><stop offset=".047" stop-color="#faf2ea"/><stop offset=".051" stop-color="#faf1e8"/><stop offset=".055" stop-color="#f9f0e7"/><stop offset=".059" stop-color="#f9f0e6"/><stop offset=".063" stop-color="#f9efe5"/><stop offset=".066" stop-color="#f8eee3"/><stop offset=".07" stop-color="#f8ede2"/><stop offset=".074" stop-color="#f7ede1"/><stop offset=".078" stop-color="#f7ece0"/><stop offset=".082" stop-color="#f7ebdf"/><stop offset=".086" stop-color="#f6eade"/><stop offset=".09" stop-color="#f6eadd"/><stop offset=".094" stop-color="#f6e9dc"/><stop offset=".098" stop-color="#f6e8db"/><stop offset=".102" stop-color="#f5e8d9"/><stop offset=".105" stop-color="#f5e7d8"/><stop offset=".109" stop-color="#f5e7d7"/><stop offset=".113" stop-color="#f5e6d6"/><stop offset=".117" stop-color="#f4e5d5"/><stop offset=".121" stop-color="#f4e5d4"/><stop offset=".125" stop-color="#f4e4d3"/><stop offset=".129" stop-color="#f4e4d2"/><stop offset=".133" stop-color="#f4e3d1"/><stop offset=".137" stop-color="#f3e3d0"/><stop offset=".141" stop-color="#f3e2cf"/><stop offset=".145" stop-color="#f3e1ce"/><stop offset=".148" stop-color="#f3e1cd"/><stop offset=".152" stop-color="#f2e0cb"/><stop offset=".156" stop-color="#f2dfca"/><stop offset=".16" stop-color="#f2dfc9"/><stop offset=".164" stop-color="#f2dec8"/><stop offset=".168" stop-color="#f1dec7"/><stop offset=".172" stop-color="#f1ddc6"/><stop offset=".176" stop-color="#f1dcc5"/><stop offset=".18" stop-color="#f1dcc4"/><stop offset=".184" stop-color="#f0dbc3"/><stop offset=".188" stop-color="#f0dac2"/><stop offset=".191" stop-color="#f0dac1"/><stop offset=".195" stop-color="#f0d9c0"/><stop offset=".199" stop-color="#efd9bf"/><stop offset=".203" stop-color="#efd8be"/><stop offset=".207" stop-color="#efd7bd"/><stop offset=".211" stop-color="#efd7bc"/><stop offset=".215" stop-color="#eed6bb"/><stop offset=".219" stop-color="#eed5ba"/><stop offset=".223" stop-color="#eed5b9"/><stop offset=".227" stop-color="#eed4b8"/><stop offset=".23" stop-color="#edd4b7"/><stop offset=".234" stop-color="#edd3b6"/><stop offset=".238" stop-color="#edd3b5"/><stop offset=".242" stop-color="#edd2b4"/><stop offset=".246" stop-color="#ecd1b3"/><stop offset=".25" stop-color="#ecd0b3"/><stop offset=".254" stop-color="#ecd0b2"/><stop offset=".258" stop-color="#eccfb1"/><stop offset=".262" stop-color="#ebcfb0"/><stop offset=".266" stop-color="#ebceaf"/><stop offset=".27" stop-color="#ebceae"/><stop offset=".273" stop-color="#ebcdad"/><stop offset=".277" stop-color="#eacdac"/><stop offset=".281" stop-color="#eaccab"/><stop offset=".285" stop-color="#eaccaa"/><stop offset=".289" stop-color="#eacba9"/><stop offset=".293" stop-color="#e9caa8"/><stop offset=".297" stop-color="#e9caa7"/><stop offset=".301" stop-color="#e9c9a6"/><stop offset=".305" stop-color="#e9c8a5"/><stop offset=".309" stop-color="#e8c8a4"/><stop offset=".313" stop-color="#e8c7a3"/><stop offset=".316" stop-color="#e8c7a2"/><stop offset=".32" stop-color="#e8c6a1"/><stop offset=".324" stop-color="#e7c6a0"/><stop offset=".328" stop-color="#e7c5a0"/><stop offset=".332" stop-color="#e7c59f"/><stop offset=".336" stop-color="#e7c49e"/><stop offset=".34" stop-color="#e6c39d"/><stop offset=".344" stop-color="#e6c39c"/><stop offset=".348" stop-color="#e6c29b"/><stop offset=".352" stop-color="#e6c19a"/><stop offset=".355" stop-color="#e5c199"/><stop offset=".359" stop-color="#e5c098"/><stop offset=".363" stop-color="#e5c097"/><stop offset=".367" stop-color="#e5bf96"/><stop offset=".371" stop-color="#e4bf95"/><stop offset=".375" stop-color="#e4bf94"/><stop offset=".379" stop-color="#e4be93"/><stop offset=".383" stop-color="#e4bd92"/><stop offset=".387" stop-color="#e4bd92"/><stop offset=".391" stop-color="#e3bc91"/><stop offset=".395" stop-color="#e3bb90"/><stop offset=".398" stop-color="#e3bb8f"/><stop offset=".402" stop-color="#e3ba8e"/><stop offset=".406" stop-color="#e2ba8d"/><stop offset=".41" stop-color="#e2b98c"/><stop offset=".414" stop-color="#e2b98b"/><stop offset=".418" stop-color="#e2b88a"/><stop offset=".422" stop-color="#e1b889"/><stop offset=".426" stop-color="#e1b788"/><stop offset=".43" stop-color="#e1b787"/><stop offset=".434" stop-color="#e0b687"/><stop offset=".438" stop-color="#e0b686"/><stop offset=".441" stop-color="#dfb585"/><stop offset=".445" stop-color="#dfb484"/><stop offset=".449" stop-color="#dfb483"/><stop offset=".453" stop-color="#deb382"/><stop offset=".457" stop-color="#deb281"/><stop offset=".461" stop-color="#deb281"/><stop offset=".465" stop-color="#deb180"/><stop offset=".469" stop-color="#ddb17f"/><stop offset=".473" stop-color="#ddb07e"/><stop offset=".477" stop-color="#ddb07e"/><stop offset=".48" stop-color="#ddaf7d"/><stop offset=".484" stop-color="#dcaf7c"/><stop offset=".488" stop-color="#dcae7b"/><stop offset=".492" stop-color="#dcae7a"/><stop offset=".496" stop-color="#dcad79"/><stop offset=".5" stop-color="#dbad79"/><stop offset=".504" stop-color="#dbac78"/><stop offset=".508" stop-color="#dbac77"/><stop offset=".512" stop-color="#dbab76"/><stop offset=".516" stop-color="#daab75"/><stop offset=".52" stop-color="#daaa74"/><stop offset=".523" stop-color="#daaa74"/><stop offset=".527" stop-color="#daa973"/><stop offset=".531" stop-color="#d9a972"/><stop offset=".535" stop-color="#d9a871"/><stop offset=".539" stop-color="#d9a871"/><stop offset=".543" stop-color="#d9a770"/><stop offset=".547" stop-color="#d8a66f"/><stop offset=".551" stop-color="#d8a66f"/><stop offset=".555" stop-color="#d8a56e"/><stop offset=".559" stop-color="#d8a46d"/><stop offset=".563" stop-color="#d7a46c"/><stop offset=".566" stop-color="#d7a36b"/><stop offset=".57" stop-color="#d7a36a"/><stop offset=".574" stop-color="#d7a269"/><stop offset=".578" stop-color="#d6a268"/><stop offset=".582" stop-color="#d6a168"/><stop offset=".586" stop-color="#d6a167"/><stop offset=".59" stop-color="#d6a066"/><stop offset=".594" stop-color="#d5a065"/><stop offset=".598" stop-color="#d59f65"/><stop offset=".602" stop-color="#d59f64"/><stop offset=".605" stop-color="#d59e63"/><stop offset=".609" stop-color="#d49e62"/><stop offset=".613" stop-color="#d49d62"/><stop offset=".617" stop-color="#d49d61"/><stop offset=".621" stop-color="#d49c60"/><stop offset=".625" stop-color="#d39c60"/><stop offset=".629" stop-color="#d39c5f"/><stop offset=".633" stop-color="#d39b5e"/><stop offset=".637" stop-color="#d39b5d"/><stop offset=".641" stop-color="#d29a5c"/><stop offset=".645" stop-color="#d29a5b"/><stop offset=".648" stop-color="#d1995a"/><stop offset=".652" stop-color="#d19959"/><stop offset=".656" stop-color="#d19859"/><stop offset=".66" stop-color="#d09858"/><stop offset=".664" stop-color="#d09757"/><stop offset=".668" stop-color="#d09756"/><stop offset=".672" stop-color="#d09656"/><stop offset=".676" stop-color="#cf9655"/><stop offset=".68" stop-color="#cf9554"/><stop offset=".684" stop-color="#cf9553"/><stop offset=".688" stop-color="#cf9453"/><stop offset=".691" stop-color="#ce9452"/><stop offset=".695" stop-color="#ce9351"/><stop offset=".699" stop-color="#ce9350"/><stop offset=".703" stop-color="#ce924f"/><stop offset=".707" stop-color="#cd924e"/><stop offset=".711" stop-color="#cd914d"/><stop offset=".715" stop-color="#cd914d"/><stop offset=".719" stop-color="#cd904c"/><stop offset=".723" stop-color="#cc904b"/><stop offset=".727" stop-color="#cc8f4a"/><stop offset=".73" stop-color="#cc8f4a"/><stop offset=".734" stop-color="#cc8e49"/><stop offset=".738" stop-color="#cb8e48"/><stop offset=".742" stop-color="#cb8d47"/><stop offset=".746" stop-color="#cb8d46"/><stop offset=".75" stop-color="#cb8c46"/><stop offset=".754" stop-color="#ca8c45"/><stop offset=".758" stop-color="#ca8b44"/><stop offset=".762" stop-color="#ca8b43"/><stop offset=".766" stop-color="#ca8a42"/><stop offset=".77" stop-color="#c98a41"/><stop offset=".773" stop-color="#c98940"/><stop offset=".777" stop-color="#c98940"/><stop offset=".781" stop-color="#c9883f"/><stop offset=".785" stop-color="#c8883e"/><stop offset=".789" stop-color="#c8873d"/><stop offset=".793" stop-color="#c8873c"/><stop offset=".797" stop-color="#c8863b"/><stop offset=".801" stop-color="#c7863a"/><stop offset=".805" stop-color="#c7853a"/><stop offset=".809" stop-color="#c78539"/><stop offset=".813" stop-color="#c68438"/><stop offset=".816" stop-color="#c68437"/><stop offset=".82" stop-color="#c58337"/><stop offset=".824" stop-color="#c58336"/><stop offset=".828" stop-color="#c58235"/><stop offset=".832" stop-color="#c48234"/><stop offset=".836" stop-color="#c48133"/><stop offset=".84" stop-color="#c48132"/><stop offset=".844" stop-color="#c48031"/><stop offset=".848" stop-color="#c38030"/><stop offset=".852" stop-color="#c37f30"/><stop offset=".855" stop-color="#c37f2f"/><stop offset=".859" stop-color="#c37f2e"/><stop offset=".863" stop-color="#c27e2d"/><stop offset=".867" stop-color="#c27e2d"/><stop offset=".871" stop-color="#c27e2c"/><stop offset=".875" stop-color="#c27e2b"/><stop offset=".879" stop-color="#c27d2a"/><stop offset=".883" stop-color="#c17d29"/><stop offset=".887" stop-color="#c17c28"/><stop offset=".891" stop-color="#c17c27"/><stop offset=".895" stop-color="#c17b27"/><stop offset=".898" stop-color="#c07b26"/><stop offset=".902" stop-color="#c07a25"/><stop offset=".906" stop-color="#c07a24"/><stop offset=".91" stop-color="#c07924"/><stop offset=".914" stop-color="#bf7923"/><stop offset=".918" stop-color="#bf7822"/><stop offset=".922" stop-color="#bf7821"/><stop offset=".926" stop-color="#bf7720"/><stop offset=".93" stop-color="#be771f"/><stop offset=".934" stop-color="#be761e"/><stop offset=".938" stop-color="#be761d"/><stop offset=".941" stop-color="#be761d"/><stop offset=".945" stop-color="#bd751c"/><stop offset=".949" stop-color="#bd751b"/><stop offset=".953" stop-color="#bd751a"/><stop offset=".957" stop-color="#bd741a"/><stop offset=".961" stop-color="#bc7419"/><stop offset=".965" stop-color="#bc7318"/><stop offset=".969" stop-color="#bc7318"/><stop offset=".973" stop-color="#bb7217"/><stop offset=".977" stop-color="#bb7216"/><stop offset=".98" stop-color="#ba7115"/><stop offset=".984" stop-color="#ba7115"/><stop offset=".988" stop-color="#ba7014"/><stop offset=".992" stop-color="#b97013"/><stop offset=".996" stop-color="#b96f12"/><stop offset="1" stop-color="#b96f12"/></radialGradient><filter id="a" width="100%" height="100%" x="0%" y="0%"><feColorMatrix color-interpolation-filters="sRGB" values="0 0 0 0 1 0 0 0 0 1 0 0 0 0 1 0 0 0 1 0"/></filter></defs><rect width="100%" height="100%" fill="#f2f4f6"/><g mask="url(#H)"><use xlink:href="#I" transform="translate(2 2)"/></g><g clip-path="url(#J)"><path fill="none" stroke="#507282" stroke-width=".499" d="M236.629 141.008a2.84 2.84 0 0 1-2.84 2.843H4.989a2.843 2.843 0 0 1-2.843-2.843V5.199a2.84 2.84 0 0 1 2.843-2.843h228.8c1.57 0 2.84 1.27 2.84 2.843Zm0 0"/></g><path fill="#d4effc" stroke="#00aeef" stroke-width=".748" d="M225.317 123.609H28.216V7.325h197.101Zm0 0"/><g mask="url(#K)"><use xlink:href="#L" transform="translate(28 22)"/></g><g mask="url(#M)"><use xlink:href="#N" transform="translate(28 30)"/></g><g mask="url(#O)"><use xlink:href="#P" transform="translate(28 38)"/></g><g mask="url(#Q)"><use xlink:href="#R" transform="translate(28 45)"/></g><g mask="url(#S)"><use xlink:href="#T" transform="translate(28 53)"/></g><g mask="url(#U)"><use xlink:href="#V" transform="translate(28 61)"/></g><g mask="url(#W)"><use xlink:href="#X" transform="translate(28 68)"/></g><g mask="url(#Y)"><use xlink:href="#Z" transform="translate(28 76)"/></g><g mask="url(#aa)"><use xlink:href="#ab" transform="translate(28 84)"/></g><g mask="url(#ac)"><use xlink:href="#ad" transform="translate(28 92)"/></g><g mask="url(#ae)"><use xlink:href="#af" transform="translate(28 100)"/></g><g mask="url(#ag)"><use xlink:href="#ah" transform="translate(28 108)"/></g><g mask="url(#ai)"><use xlink:href="#aj" transform="translate(28 116)"/></g><g mask="url(#ak)"><use xlink:href="#al" transform="translate(28 7)"/></g><g mask="url(#am)"><use xlink:href="#an" transform="translate(28 14)"/></g><path fill="none" stroke="#00aeef" stroke-width=".499" d="M28.188 84.34h197.397M28.188 103.761h197.397M28.188 64.914h197.397M28.188 45.492h197.198M28.188 26.071h197.397"/><path fill="#9cc0d1" d="M24.062 123.609H11.586V7.309h12.476Zm0 0"/><use xlink:href="#ao" x="20.053" y="74.112"/><use xlink:href="#ap" x="20.053" y="68.346"/><use xlink:href="#aq" x="20.053" y="65.687"/><use xlink:href="#ar" x="20.053" y="61.247"/><path fill="#9cc0d1" d="M28.188 127.094h197.128v12.476H28.188Zm0 0"/><use xlink:href="#as" x="114.463" y="135.562"/><use xlink:href="#at" x="119.789" y="135.562"/><use xlink:href="#au" x="124.229" y="135.562"/><use xlink:href="#au" x="128.669" y="135.562"/><use xlink:href="#av" x="133.109" y="135.562"/><path fill="none" stroke="#00aeef" stroke-width=".249" d="M63.434 7.449v115.773m-30.883.016V7.466m4.413 115.772V7.466m22.055-.017v115.773M54.61 7.449v115.773m-13.235.016V7.466"/><path fill="none" stroke="#00aeef" stroke-width=".499" d="M50.2 7.449v115.773"/><path fill="none" stroke="#00aeef" stroke-width=".249" d="M45.785 123.238V7.466m22.059 115.772V7.466"/><path fill="none" stroke="#00aeef" stroke-width=".499" d="M72.254 123.238V7.466"/><path fill="none" stroke="#00aeef" stroke-width=".249" d="M76.664 123.238V7.466"/><path fill="none" stroke="#00aeef" stroke-width=".499" d="M94.313 7.449v115.773"/><path fill="none" stroke="#00aeef" stroke-width=".249" d="M81.078 123.238V7.466m8.82-.017v115.773M85.488 7.449v115.773M103.133 7.449v115.773M98.723 7.449v115.773m8.823.016V7.466m4.411-.017v115.773"/><path fill="none" stroke="#00aeef" stroke-width=".499" d="M116.367 7.449v115.773"/><path fill="none" stroke="#00aeef" stroke-width=".249" d="M120.782 7.449v115.773m4.409-115.773v115.773m4.18.016V7.466m4.414 115.772V7.466m22.054-.017v115.773M151.43 7.449v115.773"/><path fill="none" stroke="#00aeef" stroke-width=".499" d="M138.195 123.238V7.466"/><path fill="none" stroke="#00aeef" stroke-width=".249" d="M147.02 7.449v115.773m-4.415.016V7.466"/><path fill="none" stroke="#00aeef" stroke-width=".499" d="M160.293 7.449v115.773"/><path fill="none" stroke="#00aeef" stroke-width=".249" d="M164.703 7.449v115.773m4.414-115.773v115.773m4.18.016V7.466m4.41 115.772V7.466m22.058-.017v115.773M195.356 7.449v115.773"/><path fill="none" stroke="#00aeef" stroke-width=".499" d="M182.118 123.238V7.466"/><path fill="none" stroke="#00aeef" stroke-width=".249" d="M190.941 7.449v115.773m-4.41.016V7.466m35.195-.017v115.773M217.317 7.449v115.773"/><path fill="none" stroke="#00aeef" stroke-width=".499" d="M204.082 123.238V7.466"/><path fill="none" stroke="#00aeef" stroke-width=".249" d="M212.902 7.449v115.773m-4.41.016V7.466"/><path fill="none" stroke="#cb97c4" stroke-width=".998" d="M103.168 123.035V78.651"/><path fill="none" stroke="#fff45f" stroke-width=".998" d="M166.911 122.535c-44.47-2.288-58.847-19.04-64.374-47.845"/><path fill="none" stroke="#b11116" stroke-width=".998" d="M95.086 118.546c46.212-12.549 67.15-89.932 70.994-110.859"/><path fill="none" stroke="#f79552" stroke-width=".998" d="M161.172 7.821c-29.504 75.884-51.532 94.42-58.347 37.65"/><g clip-path="url(#aw)"><g clip-path="url(#ax)"><path fill="url(#ay)" d="M114.93 76.004v5.437h5.441v-5.437Zm0 0"/></g></g><path fill="none" stroke="#f7941e" stroke-width=".998" d="M120.371 78.722a2.721 2.721 0 0 1-5.441 0 2.72 2.72 0 0 1 2.718-2.718 2.72 2.72 0 0 1 2.723 2.718Zm0 0"/><path fill="#0072bc" d="m142.949 18.477 4.406 20.796-11.644-19.796Zm0 0"/><path fill="#7ed3f7" stroke="#0072bc" stroke-width=".998" d="M143.914 23.969c0 1.589-1.223 2.874-2.73 2.874H89.991c-1.508 0-2.73-1.285-2.73-2.874v-8.222c0-1.59 1.222-2.875 2.73-2.875h51.191c1.508 0 2.731 1.286 2.731 2.875Zm0 0"/><use xlink:href="#az" x="98.021" y="22.287"/><use xlink:href="#aA" x="102.9" y="22.287"/><use xlink:href="#aB" x="107.34" y="22.287"/><use xlink:href="#aC" x="109.56" y="22.287"/><use xlink:href="#aD" x="113.999" y="22.287"/><use xlink:href="#av" x="117.992" y="22.287"/><use xlink:href="#aE" x="122.432" y="22.287"/><use xlink:href="#aC" x="125.091" y="22.287"/><use xlink:href="#aF" x="129.531" y="22.287"/><path fill="#0072bc" d="m153.797 62.668-.332-11.977 6.988 9.981Zm0 0"/><path fill="#7ed3f7" stroke="#0072bc" stroke-width=".998" d="M209.293 70.465a2.87 2.87 0 0 1-2.874 2.875h-50.903a2.87 2.87 0 0 1-2.874-2.875v-8.222a2.87 2.87 0 0 1 2.874-2.874h50.903a2.87 2.87 0 0 1 2.874 2.874Zm0 0"/><use xlink:href="#aH" x="157.13" y="68.783"/><use xlink:href="#aC" x="162.456" y="68.783"/><use xlink:href="#aE" x="166.896" y="68.783"/><use xlink:href="#aC" x="169.555" y="68.783"/><use xlink:href="#aI" x="173.995" y="68.783"/><use xlink:href="#aJ" x="177.987" y="68.783"/><use xlink:href="#aB" x="179.76" y="68.783"/><use xlink:href="#au" x="181.98" y="68.783"/><use xlink:href="#av" x="188.639" y="68.783"/><use xlink:href="#aE" x="193.079" y="68.783"/><use xlink:href="#aC" x="195.738" y="68.783"/><use xlink:href="#aF" x="200.178" y="68.783"/><path fill="#0072bc" d="m94.816 86.953 7.77 6.695-9.641-1.339Zm0 0"/><path fill="#7ed3f7" stroke="#0072bc" stroke-width=".998" d="M94.504 89.336c0 1.586-1.223 2.874-2.73 2.874H40.581c-1.508 0-2.73-1.288-2.73-2.874v-8.222c0-1.59 1.222-2.879 2.73-2.879h51.191c1.508 0 2.731 1.29 2.731 2.88Zm0 0"/><use xlink:href="#as" x="58.821" y="87.654"/><use xlink:href="#aB" x="64.147" y="87.654"/><use xlink:href="#aC" x="66.367" y="87.654"/><use xlink:href="#aD" x="70.806" y="87.654"/><use xlink:href="#aD" x="72.579" y="87.654"/><path fill="#0072bc" d="m160.121 112.574-18.301 6.321 11.313-9.645Zm0 0"/><path fill="#7ed3f7" stroke="#0072bc" stroke-width=".998" d="M209.293 110.058a2.87 2.87 0 0 1-2.874 2.875h-50.907a2.87 2.87 0 0 1-2.87-2.875v-8.222a2.87 2.87 0 0 1 2.87-2.874h50.907a2.87 2.87 0 0 1 2.874 2.874Zm0 0"/><use xlink:href="#aK" x="157.569" y="108.377"/><use xlink:href="#aL" x="159.788" y="108.377"/><use xlink:href="#av" x="164.228" y="108.377"/><use xlink:href="#aM" x="168.668" y="108.377"/><use xlink:href="#aN" x="173.108" y="108.377"/><use xlink:href="#au" x="177.1" y="108.377"/><use xlink:href="#av" x="181.54" y="108.377"/><use xlink:href="#av" x="188.2" y="108.377"/><use xlink:href="#aE" x="192.639" y="108.377"/><use xlink:href="#aC" x="195.298" y="108.377"/><use xlink:href="#aF" x="199.738" y="108.377"/><path fill="#0072bc" d="m92.941 69.008 22.5 9.91-19.55-15.801Zm0 0"/><path fill="#7ed3f7" stroke="#0072bc" stroke-width=".998" d="M96.199 66.055c0 1.59-1.29 2.874-2.874 2.874h-29.95a2.87 2.87 0 0 1-2.87-2.874V53.841a2.87 2.87 0 0 1 2.87-2.874h29.95a2.875 2.875 0 0 1 2.874 2.874Zm0 0"/><use xlink:href="#aO" x="65.283" y="60.788"/><use xlink:href="#aP" x="69.723" y="60.788"/><use xlink:href="#aQ" x="71.943" y="60.788"/><use xlink:href="#aR" x="77.709" y="63.783"/><use xlink:href="#aS" x="82.698" y="63.783"/><use xlink:href="#aT" x="86.693" y="63.783"/><g id="faa-caption" font-family="ui-sans-serif, system-ui, -apple-system, 'Segoe UI', sans-serif" font-size="9" fill="#1a1a1a"><text><tspan x="4" y="155.988"><tspan font-weight="700">Figure 11-5.</tspan> Drag versus speed.</tspan></text></g></svg>